#define close_hover_width 14
#define close_hover_height 14
static unsigned char close_hover_bits[] = {
   0xf0, 0x03, 0xfc, 0x0f, 0xf6, 0x1b, 0xe2, 0x11, 0xc7, 0x38, 0x0f, 0x3c,
   0x1f, 0x3e, 0x1f, 0x3e, 0x0f, 0x3c, 0xc7, 0x38, 0xe2, 0x11, 0xf6, 0x1b,
   0xfc, 0x0f, 0xf0, 0x03 };
