#define desk_toggled_hover_width 14
#define desk_toggled_hover_height 14
static unsigned char desk_toggled_hover_bits[] = {
   0xf0, 0x03, 0xfc, 0x0f, 0xfe, 0x1f, 0x3e, 0x1f, 0x3f, 0x3f, 0x3f, 0x3f,
   0x07, 0x38, 0x07, 0x38, 0x3f, 0x3f, 0x3f, 0x3f, 0x3e, 0x1f, 0xfe, 0x1f,
   0xfc, 0x0f, 0xf0, 0x03 };
