#define iconify_hover_width 14
#define iconify_hover_height 14
static unsigned char iconify_hover_bits[] = {
   0xf0, 0x03, 0xfc, 0x0f, 0xfe, 0x1f, 0xfe, 0x1f, 0xff, 0x3f, 0xff, 0x3f,
   0xff, 0x3f, 0xff, 0x3f, 0xff, 0x3f, 0x07, 0x38, 0x06, 0x18, 0xfe, 0x1f,
   0xfc, 0x0f, 0xf0, 0x03 };
