#define max_hover_width 14
#define max_hover_height 14
static unsigned char max_hover_bits[] = {
   0xf0, 0x03, 0xfc, 0x0f, 0xfe, 0x1f, 0x06, 0x18, 0x07, 0x38, 0xe7, 0x39,
   0xe7, 0x39, 0xe7, 0x39, 0xe7, 0x39, 0x07, 0x38, 0x06, 0x18, 0xfe, 0x1f,
   0xfc, 0x0f, 0xf0, 0x03 };
