#define max_toggled_pressed_width 14
#define max_toggled_pressed_height 14
static unsigned char max_toggled_pressed_bits[] = {
   0xf0, 0x03, 0xf8, 0x07, 0xfc, 0x0f, 0xfe, 0x1f, 0x0f, 0x3c, 0x0f, 0x3c,
   0xcf, 0x3c, 0xcf, 0x3c, 0x0f, 0x3c, 0x0f, 0x3c, 0xfe, 0x1f, 0xfc, 0x0f,
   0xf8, 0x07, 0xf0, 0x03 };
