#define shade_hover_width 14
#define shade_hover_height 14
static unsigned char shade_hover_bits[] = {
   0xf0, 0x03, 0xfc, 0x0f, 0xfe, 0x1f, 0xfe, 0x1f, 0x3f, 0x3f, 0x1f, 0x3e,
   0x0f, 0x3c, 0xc7, 0x38, 0xe3, 0x31, 0xf3, 0x33, 0xfe, 0x1f, 0xfe, 0x1f,
   0xfc, 0x0f, 0xf0, 0x03 };
